<?xml version="1.0" encoding="utf-8"?>
<!-- Generator: Adobe Illustrator 20.1.0, SVG Export Plug-In . SVG Version: 6.00 Build 0)  -->
<svg version="1.1" id="Layer_1" xmlns="http://www.w3.org/2000/svg" xmlns:xlink="http://www.w3.org/1999/xlink" x="0px" y="0px"
	 viewBox="0 0 460 100" style="enable-background:new 0 0 460 100;" xml:space="preserve">
<style type="text/css">
	.st0{fill:#FFFFFF;}
</style>
<g>
	<g>
		<polygon class="st0" points="39.1,58.8 21,22.5 9.5,22.5 9.5,62.2 4.5,62.4 4.5,77.5 13.5,77.5 13.5,62.2 18.5,62 18.5,36.6 
			30.6,60.9 25.8,61.1 31,71.5 37,71.5 42.4,60.6 47.6,60.3 59.2,36.6 59.2,59.4 54.2,59.7 54.3,77.5 62.5,77.5 62.5,59.5 
			67.5,59.2 67.5,22.5 57,22.5 		"/>
		<path class="st0" d="M135.5,55.2l-14.3-32.7h-9.4L96.5,57.1l-5.1,0.4l-8.7,20h9.6l5.2-12H125l5.2,12h9.8l-9.6-22L135.5,55.2z
			 M121.5,56.5H109h-3.1l10.3-24.1l9.8,23.2l-4.9,0.1L121.5,56.5z"/>
		<path class="st0" d="M187.8,30.8c5.5,0,11.2,2.7,15.2,6.9l5.4-6.7c-5.3-5.2-13-8.4-20.8-8.4c-16.2,0-28.7,11.9-28.7,27.5
			c0,1.3,0.1,2.6,0.3,3.8l-5,0.3c1.9,13.7,13.5,23.7,28.1,23.7c7.7,0,15.6-3.5,21.1-9l-5.5-6.1c-4.1,4-9.8,6.5-15.2,6.5
			c-9.6,0-17.3-6.5-19.1-15.4l4.9-0.3c-0.2-1.2-0.3-2.4-0.3-3.6C168.3,39.2,176.9,30.8,187.8,30.8z"/>
		<path class="st0" d="M267.4,47.9l-11-25.4H247l-11.8,27l-5.1,0.3l-12.2,27.7h9.6l5.2-12h27.5l5.2,12h9.8l-12.8-29.3L267.4,47.9z
			 M236.1,56.5l3-7l5.2-0.2l7.1-16.7l6.6,15.7l-4.9,0.1l3.5,8.1H236.1z"/>
		<path class="st0" d="M322.2,22.5h-22.7V46l-5,0.3v31.2h10v-17h12.7c0.9,0,1.7,0.3,2.5,0.2l10,16.8h10.5l-12.3-18.3
			c6.5-2.5,10.4-7.7,11.2-15.1l5-0.3c0.1-0.8,0.1-1.7,0.1-2.5C344.2,29.5,336.1,22.5,322.2,22.5z M330.2,44.2c-1,5.7-5.7,8.3-13,8.3
			h-12.7V46l5-0.3V31.5h12.7c8.4,0,13.3,3.2,13.3,10.4c0,0.8-0.1,1.4-0.2,2.1L330.2,44.2z"/>
		<polygon class="st0" points="368.5,42.1 363.5,42.4 363.5,77.5 372.5,77.5 372.5,42.2 377.5,41.9 377.5,22.5 368.5,22.5 		"/>
		<path class="st0" d="M455.5,37.5c-5-9-14.5-14.9-26-14.9c-12.7,0-23.1,7.1-27.2,17.7l-5.2,0.3c-1.1,3-1.7,6.2-1.7,9.6
			c0,15.6,12.6,27.7,29,27.7s29.1-12.1,29.1-27.7c0-4.5-0.9-8.6-2.8-12.3L455.5,37.5L455.5,37.5z M424.5,69.6
			c-10.7,0-19.7-8.6-19.7-19.4c0-3.6,1-7,2.8-9.9l5.2-0.3c3.5-5.5,9.6-9.1,16.7-9.1c6.1,0,11.7,2.7,15.2,7.1l-4.8,0.3
			c2.6,3.3,4.1,7.4,4.1,12C444,61,435.2,69.6,424.5,69.6z"/>
	</g>
</g>
</svg>
